# xmcd
#
# Track frame offsets:
#	150
#	10125
#	23082
#	39367
#	52307
#	63407
#	75777
#	91762
#	105807
#	120435
#	134720
#	148187
#	163170
#	173190
#	186710
#	200095
#	211440
#	223712
#	237207
#	245170
#	256495
#	266432
#	276512
#	287895
#	304082
#	319755
#	334057
#
# Disc length: 4598 seconds
#
# Revision: 1
# Processed by: cddbd v1.5.1PL2 Copyright (c) Steve Scherf et al.
# Submitted via: audiograbber 1.83.01
#
DISCID=9c11f41b
DTITLE=Nico Carstens - Die Lewenslied van Nico Carstens Cd2
DYEAR=2001
DGENRE=Instrumental
TTITLE0=Skoppelmaai
TTITLE1=Die Ou Kalahari
TTITLE2=Pasop vir die Maan
TTITLE3=Meadowlands
TTITLE4=Die Aap Setees
TTITLE5=Kariba
TTITLE6=Zambezi
TTITLE7=Katjiepieringwals
TTITLE8=Meerkat Samba
TTITLE9=Klokkiewals
TTITLE10=Pondoland
TTITLE11=Mimosa Cha Cha
TTITLE12=Ressano Garcia
TTITLE13=Grandma Dooley
TTITLE14=Hy-Ba-Ba-Rie-Bab
TTITLE15=Impi Zulu
TTITLE16=Kersfees Wals
TTITLE17=Casablanca
TTITLE18=Geenfonteinse Vastrap
TTITLE19=Jy's my Hart
TTITLE20=Die Wolf Kwela
TTITLE21=Jazz-A-Roo
TTITLE22=Skuus Bietjie Hier
TTITLE23=Net Jy Alleen
TTITLE24=Nico se Wysie
TTITLE25=Quietude
TTITLE26=Isambo
EXTD=
EXTT0=
EXTT1=
EXTT2=
EXTT3=
EXTT4=
EXTT5=
EXTT6=
EXTT7=
EXTT8=
EXTT9=
EXTT10=
EXTT11=
EXTT12=
EXTT13=
EXTT14=
EXTT15=
EXTT16=
EXTT17=
EXTT18=
EXTT19=
EXTT20=
EXTT21=
EXTT22=
EXTT23=
EXTT24=
EXTT25=
EXTT26=
PLAYORDER=
